<svg width="24" height="24" viewBox="0 0 24 24" fill="none" xmlns="http://www.w3.org/2000/svg">
<path d="M7 8.00003H17M7 12H15M7 16H15M4 3.00003H20C20.2652 3.00003 20.5196 3.10539 20.7071 3.29292C20.8946 3.48046 21 3.73481 21 4.00003V20C21 20.2652 20.8946 20.5196 20.7071 20.7071C20.5196 20.8947 20.2652 21 20 21H4C3.73478 21 3.48043 20.8947 3.29289 20.7071C3.10536 20.5196 3 20.2652 3 20V4.00003C3 3.73481 3.10536 3.48046 3.29289 3.29292C3.48043 3.10539 3.73478 3.00003 4 3.00003Z" stroke="#D6D6D6" stroke-width="2" stroke-linecap="round" stroke-linejoin="round"/>
</svg>
