<svg width="24" height="24" viewBox="0 0 24 24" fill="none" xmlns="http://www.w3.org/2000/svg">
<path d="M6.5 8.99994H17.5M6.5 14.4999H17.5M9.5 17.5V5.99997M14.5 17.5C14.5 12.6184 14.5 10.8815 14.5 5.99997M4 2.99997H20C20.2652 2.99997 20.5196 3.10533 20.7071 3.29286C20.8946 3.4804 21 3.73475 21 3.99997V20C21 20.2652 20.8946 20.5195 20.7071 20.7071C20.5196 20.8946 20.2652 21 20 21H4C3.73478 21 3.48043 20.8946 3.29289 20.7071C3.10536 20.5195 3 20.2652 3 20V3.99997C3 3.73475 3.10536 3.4804 3.29289 3.29286C3.48043 3.10533 3.73478 2.99997 4 2.99997Z" stroke="#D6D6D6" stroke-width="2" stroke-linecap="round" stroke-linejoin="round"/>
</svg>
