<svg width="24" height="24" viewBox="0 0 24 24" fill="none" xmlns="http://www.w3.org/2000/svg">
<path d="M12 3V7M12 21V17M7 15.5C7 16.4283 7.36875 17.3185 8.02513 17.9749C8.6815 18.6313 9.57174 19 10.5 19H13.5C14.4283 19 15.3185 18.6313 15.9749 17.9749C16.6313 17.3185 17 16.4283 17 15.5C17 14.5717 16.6313 13.6815 15.9749 13.0251C15.3185 12.3687 14.4283 12 13.5 12H10.5C9.57174 12 8.6815 11.6313 8.02513 10.9749C7.36875 10.3185 7 9.42826 7 8.5C7 7.57174 7.36875 6.6815 8.02513 6.02513C8.6815 5.36875 9.57174 5 10.5 5H13.5C14.4283 5 15.3185 5.36875 15.9749 6.02513C16.6313 6.6815 17 7.57174 17 8.5" stroke="#D6D6D6" stroke-width="2" stroke-linecap="round" stroke-linejoin="round"/>
</svg>
