<svg width="24" height="24" viewBox="0 0 24 24" fill="none" xmlns="http://www.w3.org/2000/svg">
<path d="M20 2.99997H4C3.73478 2.99997 3.48043 3.10533 3.29289 3.29286C3.10536 3.4804 3 3.73475 3 3.99997V20C3 20.2652 3.10536 20.5195 3.29289 20.7071C3.48043 20.8946 3.73478 21 4 21H20C20.2652 21 20.5196 20.8946 20.7071 20.7071C20.8946 20.5195 21 20.2652 21 20V3.99997C21 3.73475 20.8946 3.4804 20.7071 3.29286C20.5196 3.10533 20.2652 2.99997 20 2.99997Z" stroke="#D6D6D6" stroke-width="2" stroke-linecap="round" stroke-linejoin="round"/>
<path d="M10.8333 15.5V7.91667L17.25 6.75V14.3333" stroke="#D6D6D6" stroke-linecap="round" stroke-linejoin="round"/>
<path d="M17.25 9.08334L10.8333 10.25M10.8333 15.5C10.7916 16.0016 10.5539 16.4666 10.1718 16.7941C9.7896 17.1217 9.29375 17.2855 8.79167 17.25C8.28958 17.2855 7.79373 17.1217 7.41157 16.7941C7.02941 16.4666 6.79171 16.0016 6.75 15.5C6.79171 14.9984 7.02941 14.5334 7.41157 14.2059C7.79373 13.8783 8.28958 13.7145 8.79167 13.75C9.29375 13.7145 9.7896 13.8783 10.1718 14.2059C10.5539 14.5334 10.7916 14.9984 10.8333 15.5ZM15.2083 12.5833C14.7062 12.5478 14.2104 12.7116 13.8282 13.0392C13.4461 13.3668 13.2084 13.8317 13.1667 14.3333C13.2084 14.8349 13.4461 15.2999 13.8282 15.6275C14.2104 15.955 14.7062 16.1188 15.2083 16.0833C15.7104 16.1188 16.2063 15.955 16.5884 15.6275C16.9706 15.2999 17.2083 14.8349 17.25 14.3333C17.2083 13.8317 16.9706 13.3668 16.5884 13.0392C16.2063 12.7116 15.7104 12.5478 15.2083 12.5833Z" stroke="#D6D6D6" stroke-linecap="round" stroke-linejoin="round"/>
</svg>
